<svg id="visual" viewBox="0 0 900 600" width="900" height="600" xmlns="http://www.w3.org/2000/svg" xmlns:xlink="http://www.w3.org/1999/xlink" version="1.1"><rect x="0" y="0" width="900" height="600" fill="#001220"></rect><defs><linearGradient id="grad1_0" x1="33.3%" y1="0%" x2="100%" y2="100%"><stop offset="20%" stop-color="#001220" stop-opacity="1"></stop><stop offset="80%" stop-color="#001220" stop-opacity="1"></stop></linearGradient></defs><defs><linearGradient id="grad2_0" x1="0%" y1="0%" x2="66.7%" y2="100%"><stop offset="20%" stop-color="#001220" stop-opacity="1"></stop><stop offset="80%" stop-color="#001220" stop-opacity="1"></stop></linearGradient></defs><g transform="translate(900, 0)"><path d="M0 486.7C-44.5 465.4 -89.1 444 -140.3 431.8C-191.5 419.6 -249.4 416.5 -278.6 383.5C-307.8 350.5 -308.4 287.5 -339.8 246.9C-371.2 206.2 -433.3 187.8 -462.9 150.4C-492.6 113 -489.6 56.5 -486.7 0L0 0Z" fill="#FBAE3C"></path></g><g transform="translate(0, 600)"><path d="M0 -486.7C41.1 -448.8 82.2 -410.8 129.8 -399.4C177.4 -388.1 231.5 -403.3 283.9 -390.8C336.3 -378.3 386.9 -338.1 393.8 -286.1C400.6 -234.2 363.7 -170.5 371.9 -120.8C380.1 -71.2 433.4 -35.6 486.7 0L0 0Z" fill="#FBAE3C"></path></g></svg>