<svg height="512pt" viewBox="0 0 512 512" width="512pt" xmlns="http://www.w3.org/2000/svg" xmlns:xlink="http://www.w3.org/1999/xlink"><linearGradient id="a" gradientUnits="userSpaceOnUse" x1="0" x2="512" y1="256" y2="256"><stop offset="0" stop-color="#00f1ff"/><stop offset=".231" stop-color="#00d8ff"/><stop offset=".5138" stop-color="#00c0ff"/><stop offset=".7773" stop-color="#00b2ff"/><stop offset="1" stop-color="#00adff"/></linearGradient><path d="m512 256c0 141.386719-114.613281 256-256 256s-256-114.613281-256-256 114.613281-256 256-256 256 114.613281 256 256zm0 0" fill="url(#a)"/><g fill="#fff"><path d="m256 79.363281c-97.398438 0-176.636719 79.238281-176.636719 176.636719s79.238281 176.636719 176.636719 176.636719c32.300781 0 63.902344-8.800781 91.398438-25.457031 7.085937-4.289063 9.351562-13.515626 5.058593-20.601563s-13.515625-9.351563-20.601562-5.058594c-22.804688 13.816407-49.035157 21.117188-75.855469 21.117188-80.855469 0-146.636719-65.78125-146.636719-146.636719s65.78125-146.636719 146.636719-146.636719 146.636719 65.78125 146.636719 146.636719c0 28.910156-8.597657 57.054688-24.863281 81.386719-4.605469 6.886719-2.753907 16.203125 4.132812 20.804687 6.882812 4.605469 16.199219 2.757813 20.804688-4.132812 19.578124-29.28125 29.925781-63.191406 29.925781-98.058594 0-97.398438-79.238281-176.636719-176.636719-176.636719zm0 0"/><path d="m262.851562 373.734375c8.28125 0 15-6.714844 15-15v-11.710937h21.292969c29.730469 0 53.933594-24.128907 54.042969-53.832032 0-.039062 0-.074218 0-.109375 0-.015625 0-.03125 0-.050781 0-.015625 0-.03125 0-.046875 0-.035156 0-.070313 0-.105469-.070312-19.453125-10.441406-36.515625-25.917969-46.003906 2.636719-3.726562 4.804688-7.835938 6.402344-12.257812 2.042969-5.660157 3.082031-11.601563 3.082031-17.65625 0-28.664063-23.351562-51.984376-52.046875-51.984376h-6.855469v-12.398437c0-8.28125-6.71875-15-15-15-8.285156 0-15 6.71875-15 15v12.398437h-17.945312v-12.398437c0-8.28125-6.714844-15-15-15s-15 6.71875-15 15v12.398437h-12.394531c-8.285157 0-15 6.714844-15 15 0 8.285157 6.714843 15 15 15h12.394531v122.046876h-12.394531c-8.285157 0-15 6.714843-15 15 0 8.285156 6.714843 15 15 15h12.394531v11.710937c0 8.285156 6.714844 15 15 15s15-6.714844 15-15v-11.710937h17.941406v11.710937c.003906 8.285156 6.71875 15 15.003906 15zm-32.945312-178.757813h54.800781c12.152344 0 22.042969 9.863282 22.042969 21.984376 0 2.570312-.4375 5.085937-1.296875 7.46875-3.136719 8.679687-11.472656 14.515624-20.746094 14.515624h-21.171875c-8.285156 0-15 6.714844-15 15 0 8.285157 6.714844 15 15 15h35.605469c13.246094 0 24.019531 10.800782 24.046875 24.085938-.027344 13.234375-10.800781 23.992188-24.046875 23.992188h-69.234375zm0 0"/></g></svg>