<svg height="512pt" viewBox="0 0 512 512" width="512pt" xmlns="http://www.w3.org/2000/svg" xmlns:xlink="http://www.w3.org/1999/xlink"><linearGradient id="a" gradientUnits="userSpaceOnUse" x1="0" x2="512" y1="256" y2="256"><stop offset="0" stop-color="#00f1ff"/><stop offset=".231" stop-color="#00d8ff"/><stop offset=".5138" stop-color="#00c0ff"/><stop offset=".7773" stop-color="#00b2ff"/><stop offset="1" stop-color="#00adff"/></linearGradient><path d="m512 256c0 141.386719-114.613281 256-256 256s-256-114.613281-256-256 114.613281-256 256-256 256 114.613281 256 256zm0 0" fill="url(#a)"/><path d="m376.332031 283.667969c1.574219-5.765625.914063-12.03125-2.085937-17.449219l-97.195313-175.53125c-4.109375-7.417969-11.917969-12.023438-20.398437-12.023438-8.433594 0-16.210938 4.554688-20.335938 11.90625l-98.496094 175.515626c-4.519531 8.054687-3.855468 18.023437 1.691407 25.410156l96.492187 128.519531c4.402344 5.867187 11.3125 9.320313 18.644532 9.320313h4c7.386718 0 14.339843-3.5 18.738281-9.4375l17.710937-23.4375c4.546875-6.136719 3.195313-14.804688-3-19.269532-6.078125-4.378906-14.550781-3.0625-19.011718 2.960938l-16.445313 21.722656-68.15625-90.78125 63.054687 23.402344c1.683594.625 3.453126.941406 5.21875.941406 1.769532 0 3.542969-.316406 5.226563-.941406l60.148437-22.347656-12.746093 16.570312c-4.675781 6.3125-3.097657 15.253906 3.457031 19.585938 6.074219 4.007812 14.222656 2.570312 18.554688-3.277344l40.410156-52.621094c2.449218-2.324219 4.042968-5.417969 4.523437-8.738281zm-134.636719 15.179687-52.300781-19.414062 52.300781-19.410156zm30-38.863281 52.339844 19.449219-52.339844 19.449218zm63.035157-8.578125-63.035157-23.421875v-90.414063zm-93.035157-114.441406v91.058594l-64.542968 23.953124zm0 0" fill="#fff"/></svg>