<svg width="512" height="512" viewBox="0 0 512 512" fill="none" xmlns="http://www.w3.org/2000/svg">
<path fill-rule="evenodd" clip-rule="evenodd" d="M403.625 266.023C403.562 265.887 403.492 265.754 403.422 265.621L264.367 5.28906C262.629 2.03125 259.234 0 255.547 0C251.855 0 248.465 2.03125 246.727 5.28906L177.996 133.957C175.395 138.828 177.234 144.891 182.105 147.488C186.98 150.094 193.035 148.254 195.637 143.383L255.547 31.2266L385.574 274.656C385.641 274.785 385.703 274.914 385.773 275.043C397.105 296.258 403.094 320.258 403.094 344.453C403.094 425.812 336.902 492 255.547 492C174.188 492 108 425.812 108 344.453C108 320.258 113.988 296.254 125.32 275.043C125.395 274.91 125.461 274.773 125.527 274.641L157.941 213.957C160.543 209.086 158.703 203.027 153.832 200.426C148.961 197.824 142.902 199.664 140.301 204.535L107.672 265.621C107.598 265.758 107.523 265.898 107.461 266.039C94.7266 290.035 88 317.141 88 344.453C88 436.84 163.16 512 255.547 512C347.934 512 423.094 436.84 423.094 344.453C423.094 317.133 416.363 290.023 403.625 266.023V266.023Z" fill="white"/>
<path fill-rule="evenodd" clip-rule="evenodd" d="M301.379 262.91C296.594 260.148 290.48 261.789 287.719 266.57L206.055 408.016C203.293 412.801 204.934 418.914 209.715 421.676C211.289 422.586 213.008 423.019 214.707 423.019C218.16 423.019 221.523 421.226 223.375 418.016L305.039 276.57C307.801 271.789 306.16 265.672 301.379 262.91V262.91Z" fill="white"/>
<path fill-rule="evenodd" clip-rule="evenodd" d="M202.121 250.23C179.613 250.23 161.301 268.543 161.301 291.051C161.301 313.562 179.613 331.875 202.121 331.875C224.629 331.875 242.941 313.562 242.941 291.051C242.941 268.543 224.629 250.23 202.121 250.23V250.23ZM202.121 311.875C190.641 311.875 181.301 302.535 181.301 291.055C181.301 279.57 190.641 270.23 202.121 270.23C213.602 270.23 222.941 279.57 222.941 291.055C222.941 302.535 213.602 311.875 202.121 311.875V311.875Z" fill="white"/>
<path fill-rule="evenodd" clip-rule="evenodd" d="M268.148 393.535C268.148 416.047 286.465 434.359 308.973 434.359C331.48 434.359 349.793 416.047 349.793 393.535C349.793 371.027 331.48 352.715 308.973 352.715C286.465 352.715 268.148 371.027 268.148 393.535V393.535ZM308.973 372.715C320.453 372.715 329.793 382.055 329.793 393.535C329.793 405.02 320.453 414.359 308.973 414.359C297.492 414.359 288.148 405.02 288.148 393.535C288.148 382.055 297.488 372.715 308.973 372.715V372.715Z" fill="white"/>
<path fill-rule="evenodd" clip-rule="evenodd" d="M167.969 183.957C173.477 183.957 177.969 179.465 177.969 173.957C177.969 168.449 173.477 163.957 167.969 163.957C162.461 163.957 157.969 168.449 157.969 173.957C157.969 179.465 162.461 183.957 167.969 183.957Z" fill="white"/>
</svg>
