<svg height="512pt" viewBox="0 0 512 512" width="512pt" xmlns="http://www.w3.org/2000/svg" xmlns:xlink="http://www.w3.org/1999/xlink"><linearGradient id="a" gradientUnits="userSpaceOnUse" x1="0" x2="512" y1="256" y2="256"><stop offset="0" stop-color="#00f38d"/><stop offset="1" stop-color="#009eff"/></linearGradient><path d="m512 256c0 141.386719-114.613281 256-256 256s-256-114.613281-256-256 114.613281-256 256-256 256 114.613281 256 256zm0 0" fill="url(#a)"/><path d="m256 76.960938c-98.722656 0-179.039062 80.316406-179.039062 179.039062s80.316406 179.039062 179.039062 179.039062 179.039062-80.316406 179.039062-179.039062-80.316406-179.039062-179.039062-179.039062zm0 30c82.179688 0 149.039062 66.855468 149.039062 149.039062 0 18.703125-3.472656 36.609375-9.792968 53.117188h-35.972656v-132.628907l-103.273438 104.089844-103.277344-104.089844v132.628907h-35.96875c-6.320312-16.507813-9.792968-34.414063-9.792968-53.117188 0-82.179688 66.859374-149.039062 149.039062-149.039062zm0 298.078124c-51.429688 0-96.855469-26.183593-123.652344-65.921874h50.375v-89.796876l73.277344 73.851563 73.273438-73.851563v89.796876h50.378906c-26.796875 39.738281-72.222656 65.921874-123.652344 65.921874zm0 0" fill="#fff"/></svg>