<svg width="512" height="512" viewBox="0 0 512 512" fill="none" xmlns="http://www.w3.org/2000/svg">
<path d="M257 0C117.105 0 0 113.025 0 255C0 396.19 116.449 512 257 512C399.13 512 512 394.743 512 255C512 114.061 397.951 0 257 0ZM257 482.2C131.832 482.2 29.8 380.168 29.8 255C29.8 130.935 131.832 29.8 257 29.8C381.065 29.8 482.2 130.935 482.2 255C482.2 380.168 381.065 482.2 257 482.2Z" fill="white"/>
<path d="M257 60C149.21 60 60 147.491 60 255C60 307.603 80.817 358.589 117.114 394.886C122.967 400.74 132.47 400.743 138.327 394.886L159.592 373.621C165.449 367.763 165.449 358.266 159.592 352.408C153.735 346.551 144.237 346.551 138.379 352.408L128.228 362.559C106.889 336.72 93.676 304.164 90.663 270H105C113.284 270 120 263.284 120 255C120 246.716 113.284 240 105 240H90.697C93.826 205.865 107.513 174.696 128.509 149.723L138.379 159.593C144.236 165.45 153.734 165.451 159.592 159.593C165.45 153.735 165.45 144.238 159.592 138.38L149.801 128.589C175.229 107.505 207.083 93.76 242 90.674V105C242 113.284 248.716 120 257 120C265.284 120 272 113.284 272 105V90.689C305.219 93.697 335.624 106.589 360.248 126.398L230.947 218.305C217.831 227.629 210 241.346 210 255C210 256.025 210.038 257.043 210.113 258.053C211.815 281.088 232.594 300 257 300C271.542 300 285.257 292.918 293.694 281.052L385.601 151.751C405.41 176.375 418.303 206.781 421.311 240H407C398.716 240 392 246.716 392 255C392 263.284 398.716 270 407 270H421.334C418.313 304.114 405.082 336.65 383.717 362.503L373.621 352.407C367.763 346.549 358.266 346.549 352.408 352.407C346.55 358.265 346.55 367.762 352.408 373.62L373.615 394.828C379.469 400.681 388.971 400.686 394.828 394.828C431.162 358.495 452 307.529 452 255C452 147.497 364.61 60 257 60ZM269.242 263.671C266.425 267.634 261.849 270 257 270C248.262 270 240 262.71 240 255C240 251.218 243.347 246.298 248.328 242.757L320.644 191.355L269.242 263.671Z" fill="white"/>
<path d="M287 362H225C200.187 362 180 382.187 180 407C180 431.813 200.187 452 225 452H287C311.813 452 332 431.813 332 407C332 382.187 311.813 362 287 362ZM287 422H225C216.729 422 210 415.271 210 407C210 398.729 216.729 392 225 392H287C295.271 392 302 398.729 302 407C302 415.271 295.271 422 287 422Z" fill="white"/>
</svg>
